# xmcd CD database file generated by LOLA_Freedb v0.9beta0
# 
# Track frame offsets:
#      150
#      13194
#      27570
#      40150
#      51819
#      72119
#      85625
#      107065
#      129411
#      158604
#      182121
#      194503
# 
# Disc length: 2800 seconds
# 
# Revision: 0 
# Processed by: cddbd v1.5.2PL0 Copyright (c) Steve Scherf et al.
# Submitted via: LOLA_Freedb v0.9beta0
# 
DISCID=9a0aee0c
DTITLE=Champion Jack Dupree - BLUES ROOTS VOL. 8 - Champion Jack Dupree
DYEAR=1900
DGENRE=
TTITLE0=Champion Jack Dupree - Drive 'em Down Special
TTITLE1=Champion Jack Dupree - Tee-Na-Nee-Na
TTITLE2=Champion Jack Dupree - Poor House Blues
TTITLE3=Champion Jack Dupree - When Things Go Wrong
TTITLE4=Champion Jack Dupree - Please Don't Dog Your Woman
TTITLE5=Champion Jack Dupree - New Vicksburg Blues
TTITLE6=Champion Jack Dupree - Doctor Dupree Blues
TTITLE7=Champion Jack Dupree - Bring Me Flowers While I'm Living
TTITLE8=Champion Jack Dupree - In Prison Too Long
TTITLE9=Champion Jack Dupree - Free And Equal
TTITLE10=Champion Jack Dupree - I Had A Dream
TTITLE11=Champion Jack Dupree - Drinkin' Whine Spoo-Dee-Oo-Dee
EXTD=Sampler
EXTT0=
EXTT1=
EXTT2=
EXTT3=
EXTT4=
EXTT5=
EXTT6=
EXTT7=
EXTT8=
EXTT9=
EXTT10=
EXTT11=
PLAYORDER=
